<?xml version="1.0" encoding="iso-8859-1"?>
<!-- Uploaded to: SVG Repo, www.svgrepo.com, Generator: SVG Repo Mixer Tools -->
<svg height="800px" width="800px" version="1.1" id="Layer_1" xmlns="http://www.w3.org/2000/svg" xmlns:xlink="http://www.w3.org/1999/xlink" 
	 viewBox="0 0 512 512" xml:space="preserve">
<path style="fill:#FFF3DC;" d="M421.789,435.378c-6.51,43.269-53.635,68.786-75.933,68.786c-22.288,0-89.861,0-89.861,0
	s-67.563,0-89.861,0c-22.288,0-69.413-25.516-75.922-68.786c-13.239-87.949,71.743-211.069,71.743-211.069
	c71.053-21.598,117.029-21.598,188.082,0C350.036,224.308,435.028,347.429,421.789,435.378z"/>
<g>
	<path style="fill:#F0DFC0;" d="M405.462,470.894c-17.533,21.358-44.366,33.27-59.601,33.27c-22.288,0-89.861,0-89.861,0
		s-67.563,0-89.861,0c-22.288,0-69.413-25.516-75.922-68.786c-13.239-87.949,71.743-211.069,71.743-211.069
		c5.35-1.63,10.553-3.124,15.642-4.504c-22.8,37.564-70.175,125.45-60.05,192.752c6.51,43.269,53.635,68.786,75.922,68.786
		c22.298,0,89.861,0,89.861,0s67.574,0,89.861,0C381.597,481.343,393.519,477.727,405.462,470.894z"/>
	<path style="fill:#F0DFC0;" d="M250.174,108.588c0,0-23.774-100.762-94.652-100.751c-71.292,0.01-62.432,61.127-22.725,79.412
		s57.241,13.657,82.954,28.51L250.174,108.588z"/>
	<path style="fill:#F0DFC0;" d="M261.826,108.588c0,0,23.773-100.762,94.652-100.751c71.292,0.01,62.433,61.127,22.727,79.412
		s-57.241,13.657-82.954,28.51L261.826,108.588z"/>
</g>
<g>
	<path style="fill:#BA9B7C;" d="M238.508,111.01l-22.758,4.744c-25.715-14.848-43.248-10.219-82.954-28.505
		c-11.703-5.392-20.731-14.503-25.809-24.67c7.022-11.316,22.382-19.529,48.535-19.54C199.377,43.029,225.196,81.596,238.508,111.01
		z"/>
	<path style="fill:#BA9B7C;" d="M405.013,62.579c-5.078,10.167-14.106,19.278-25.809,24.67
		c-39.706,18.286-57.24,13.657-82.954,28.505l-22.758-4.744c13.312-29.414,39.131-67.981,82.986-67.971
		C382.631,43.05,397.991,51.263,405.013,62.579z"/>
</g>
<g>
	<path style="fill:#E6CFA8;" d="M238.508,111.01l-22.758,4.744c-25.715-14.848-43.248-10.219-82.954-28.505
		c-11.703-5.392-20.731-14.503-25.809-24.67c7.022-11.316,22.382-19.529,48.535-19.54C199.377,43.029,225.196,81.596,238.508,111.01
		z"/>
	<path style="fill:#E6CFA8;" d="M405.013,62.579c-5.078,10.167-14.106,19.278-25.809,24.67
		c-39.706,18.286-57.24,13.657-82.954,28.505l-22.758-4.744c13.312-29.414,39.131-67.981,82.986-67.971
		C382.631,43.05,397.991,51.263,405.013,62.579z"/>
</g>
<path style="fill:#FFF3DC;" d="M342.721,265.32c-30.375,49.194-86.727,49.194-86.727,49.194s-56.341,0-86.716-49.194
	c-38.087-61.659,1.39-89.161,1.39-89.161c5.047-64.355,85.326-67.574,85.326-67.574s80.29,3.218,85.337,67.574
	C341.332,176.159,380.808,203.661,342.721,265.32z"/>
<path style="fill:#F0DFC0;" d="M341.044,267.943C310.324,314.514,256,314.514,256,314.514s-56.351,0-86.716-49.194
	c-25.997-42.088-15.862-68.263-6.802-80.635c-2.539,14.817,0.104,35.15,16.374,61.482c31.535,51.075,90.039,51.075,90.039,51.075
	S309.279,297.242,341.044,267.943z"/>
<g>
	<path style="fill:#E6CFA8;" d="M161.295,504.163h-98.72c-2.308,0-4.18-1.871-4.18-4.18v-42.418c0-29.569,23.97-53.539,53.54-53.539
		l0,0c29.569,0,53.54,23.97,53.54,53.54v42.418C165.474,502.292,163.603,504.163,161.295,504.163z"/>
	<path style="fill:#E6CFA8;" d="M449.425,504.163h-98.719c-2.308,0-4.18-1.871-4.18-4.18v-42.418
		c0-29.569,23.97-53.539,53.54-53.539l0,0c29.569,0,53.54,23.97,53.54,53.54v42.418
		C453.605,502.292,451.733,504.163,449.425,504.163z"/>
</g>
<circle cx="226.043" cy="192.825" r="7.837"/>
<circle cx="285.957" cy="192.825" r="7.837"/>
<path d="M224.596,241.783c6.673-2.391,18.035-4.21,22.011-1.412c0.425,0.3,1.557,1.096,1.557,4.483c0,4.328,3.509,7.837,7.837,7.837
	c4.328,0,7.837-3.509,7.837-7.837c0-3.382,1.127-4.18,1.553-4.479c3.931-2.778,15.319-0.964,22.015,1.409
	c4.075,1.46,8.561-0.661,10.02-4.737c1.459-4.075-0.661-8.561-4.737-10.02c-3.937-1.41-24.191-8.009-36.318,0.529
	c-0.123,0.087-0.247,0.176-0.371,0.268c-0.124-0.092-0.248-0.181-0.371-0.268c-12.126-8.539-32.38-1.939-36.318-0.529
	c-4.074,1.459-6.195,5.944-4.737,10.02C216.034,241.121,220.517,243.24,224.596,241.783z"/>
<path d="M62.575,512h98.72c0.586,0,1.158-0.056,1.722-0.138c1.055,0.082,2.103,0.138,3.122,0.138h74.836
	c4.328,0,7.837-3.509,7.837-7.837s-3.509-7.837-7.837-7.837h-67.663v-38.76c0-33.843-27.533-61.376-61.376-61.376
	c-4.896,0-9.654,0.593-14.221,1.681c0.664-5.949,1.644-12.107,2.937-18.465c0.065,0.098,0.12,0.203,0.187,0.301
	c3.094,4.549,9.079,10.073,20.025,10.556c1.234,0.054,2.439,0.082,3.613,0.082c12.825,0,22.091-3.243,27.572-9.663
	c1.502-1.758,2.562-3.571,3.306-5.33c5.4,0.833,12.08,0.586,17.372-3.638c6.636-5.294,8.67-14.645,6.047-27.792
	c-0.847-4.245-4.978-6.998-9.219-6.151c-4.244,0.847-6.999,4.974-6.151,9.219c1.647,8.253,0.427,11.766-0.447,12.47
	c-1.601,1.289-7.1,0.426-10.734-1.162c-2.681-1.201-5.811-0.798-8.102,1.039c-2.293,1.838-3.365,4.804-2.776,7.683
	c0.003,0.017,0.152,1.889-1.213,3.487c-1.217,1.425-5.458,4.681-18.575,4.1c-4.777-0.211-6.653-2.091-7.752-3.706
	c-5.841-8.573-1.838-30.079,2.184-42.175l0.668-1.163v-0.624c11.708-29.708,26.115-56.325,36.89-74.527
	c2.405,5.394,5.384,11.067,9.068,17.029c32.301,52.312,90.905,52.914,93.385,52.914s61.094-0.602,93.394-52.913
	c3.685-5.965,6.665-11.641,9.072-17.037c10.992,18.543,25.412,45.188,36.986,74.57c0.069,0.346,0.153,0.692,0.272,1.034
	c3.469,10.057,8.626,33.772,2.427,42.886c-1.1,1.618-2.976,3.5-7.756,3.711c-12.869,0.574-17.19-2.58-18.451-3.959
	c-1.383-1.514-1.35-3.244-1.308-3.737c0.736-2.873-0.292-5.682-2.546-7.628c-2.283-1.97-5.568-2.205-8.332-0.998
	c-3.664,1.601-9.165,2.464-10.765,1.176c-0.875-0.704-2.094-4.217-0.448-12.47c0.847-4.244-1.908-8.372-6.152-9.218
	c-4.244-0.847-8.372,1.908-9.218,6.152c-2.623,13.147-0.588,22.497,6.048,27.791c5.294,4.225,11.973,4.471,17.372,3.638
	c0.743,1.759,1.805,3.573,3.306,5.33c5.482,6.42,14.745,9.663,27.572,9.663c1.174,0,2.38-0.027,3.613-0.082
	c10.946-0.483,16.932-6.007,20.025-10.556c0.096-0.141,0.178-0.292,0.271-0.435c1.262,6.232,2.26,12.448,2.94,18.607
	c-4.577-1.093-9.343-1.688-14.25-1.688c-33.843,0-61.376,27.533-61.376,61.376v38.758h-68.325c-4.328,0-7.837,3.509-7.837,7.837
	s3.509,7.837,7.837,7.837h75.494c0.162,0,0.329-0.006,0.493-0.008c0.057,0.001,0.114,0.008,0.171,0.008h107.079
	c4.328,0,7.837-3.509,7.837-7.837v-46.597c0-22.721-12.42-42.584-30.818-53.194c-4.478-66.185-45.844-139.67-65.588-171.327
	c3.713-16.273,1.831-28.997-1.329-38.019c-4.102-11.712-10.958-19.233-14.89-22.824c-2.82-23.715-15.553-42.57-37.16-55.236
	c7.263-2.89,14.323-4.576,22.523-6.524c12.976-3.083,27.684-6.579,48.305-16.076c24.338-11.209,38.974-36.618,34.046-59.108
	C414.206,24.661,403.706,0.006,356.479,0c-0.004,0-0.007,0-0.011,0c-14.582,0-28.383,3.887-41.019,11.552
	c-3.701,2.244-4.881,7.065-2.636,10.765c2.245,3.7,7.066,4.882,10.765,2.636c10.15-6.158,21.216-9.28,32.889-9.28
	c0.003,0,0.006,0,0.009,0c25.24,0.003,41.547,8.365,44.741,22.942c3.333,15.214-7.776,33.449-25.292,41.516
	c-19.205,8.845-33.108,12.148-45.373,15.063c-12.27,2.916-23.88,5.687-37.292,13.258c-7.912-2.841-15.435-4.645-21.606-5.781
	c4.059-13.005,13.98-39.869,31.761-60.326c2.839-3.266,2.493-8.216-0.774-11.056c-3.266-2.84-8.217-2.493-11.056,0.774
	c-20.857,23.996-31.633,54.799-35.589,68.135c-2.802-9.423-9.023-27.598-19.813-45.959C215.332,18.755,187.443,0,155.533,0
	c-0.004,0-0.008,0-0.011,0c-47.226,0.006-57.727,24.661-60.049,35.26c-4.928,22.488,9.709,47.899,34.046,59.108
	c20.621,9.496,35.329,12.992,48.305,16.076c8.198,1.949,15.258,3.633,22.52,6.523c-21.605,12.666-34.337,31.522-37.158,55.237
	c-3.932,3.591-10.788,11.111-14.89,22.824c-3.161,9.023-5.042,21.748-1.328,38.023c-11.215,17.974-30.465,51.209-45.353,89.302
	l-0.635,1.628v0.031c-11.395,29.512-17.974,56.51-19.595,80.357c-18.402,10.61-30.826,30.473-30.826,53.198v42.417
	C50.558,506.609,55.949,512,62.575,512z M445.768,457.566v38.76h-19.185v-32.653c0-4.328-3.509-7.837-7.837-7.837
	s-7.837,3.509-7.837,7.837v32.653h-21.687v-32.653c0-4.328-3.509-7.837-7.837-7.837c-4.328,0-7.837,3.509-7.837,7.837v32.653
	h-19.185v-38.76c0-25.201,20.502-45.703,45.703-45.703S445.768,432.366,445.768,457.566z M136.074,80.131
	c-17.516-8.067-28.626-26.302-25.292-41.516c3.194-14.576,19.502-22.938,44.741-22.942c0.004,0,0.005,0,0.009,0
	c52.861,0,77.712,64.398,84.803,86.997c-6.169,1.137-13.69,2.939-21.599,5.779c-13.411-7.569-25.02-10.34-37.289-13.257
	C169.182,92.279,155.279,88.975,136.074,80.131z M175.148,182.59l3.044-2.12l0.289-3.698c1.837-23.426,15.107-40.639,39.444-51.163
	c17.8-7.698,35.507-9.021,38.069-9.175c2.591,0.157,20.289,1.483,38.077,9.175c24.339,10.524,37.611,27.739,39.448,51.163
	l0.238,3.66l3.044,2.12c1.351,0.975,32.7,24.502-0.746,78.649v0.001c-27.614,44.72-79.555,45.472-80.059,45.475
	c-0.52,0-52.29-0.52-80.049-45.475C142.5,207.055,173.849,183.528,175.148,182.59z M66.232,457.566
	c0-25.201,20.502-45.703,45.703-45.703s45.703,20.502,45.703,45.703v38.76h-20.886v-32.653c0-4.328-3.509-7.837-7.837-7.837
	c-4.328,0-7.837,3.509-7.837,7.837v32.653H99.391v-32.653c0-4.328-3.509-7.837-7.837-7.837s-7.837,3.509-7.837,7.837v32.653H66.232
	V457.566z"/>
</svg>