<svg width="47" height="47" viewBox="0 0 47 47" fill="none" xmlns="http://www.w3.org/2000/svg">
<circle cx="23.5" cy="23.5" r="23.5" fill="#F5F6F8"/>
<path d="M38.9814 31.954L35.6626 40.1316C35.5719 40.3563 35.2524 40.3563 35.1617 40.1316L29.1691 25.3492C29.0784 25.1266 28.7589 25.1266 28.6682 25.3492L26.613 30.4161C26.6006 30.4471 26.5821 30.4739 26.5614 30.4965C26.5635 30.5378 26.5573 30.5769 26.5429 30.6161L23.2261 38.7917C23.1354 39.0164 22.8138 39.0164 22.7231 38.7917L16.7306 24.0113C16.6399 23.7866 16.3203 23.7866 16.2296 24.0113L14.1744 29.0783C14.1332 29.1793 14.0342 29.2453 13.9229 29.2453H7.27074C7.07903 29.2453 6.94916 29.0536 7.01925 28.8763L16.2296 6.16775C16.3224 5.94305 16.6419 5.94512 16.7326 6.16775L22.9643 21.5727L28.6682 7.50767C28.7589 7.28297 29.0805 7.28297 29.1712 7.50767L38.9814 31.754C39.0062 31.8179 39.0062 31.8901 38.9814 31.954Z" fill="url(#paint0_linear_1474_800)"/>
<defs>
<linearGradient id="paint0_linear_1474_800" x1="23" y1="6" x2="23" y2="40.3001" gradientUnits="userSpaceOnUse">
<stop stop-color="#1B2BB6"/>
<stop offset="1" stop-color="#D26FEB"/>
</linearGradient>
</defs>
</svg>
